<svg width="64" height="62" viewBox="0 0 64 62" fill="none" xmlns="http://www.w3.org/2000/svg">
<path fill-rule="evenodd" clip-rule="evenodd" d="M32 0C14.32 0 0 14.2234 0 31.7841C0 45.8486 9.16 57.7279 21.88 61.9393C23.48 62.2174 24.08 61.2639 24.08 60.4295C24.08 59.6747 24.04 57.1717 24.04 54.5097C16 55.9798 13.92 52.563 13.28 50.7751C12.92 49.8613 11.36 47.0405 10 46.2856C8.88 45.6897 7.28 44.2196 9.96 44.1799C12.48 44.1402 14.28 46.4843 14.88 47.4378C17.76 52.2451 22.36 50.8943 24.2 50.06C24.48 47.994 25.32 46.6035 26.24 45.8088C19.12 45.0142 11.68 42.2729 11.68 30.1154C11.68 26.6589 12.92 23.7984 14.96 21.5735C14.64 20.7789 13.52 17.521 15.28 13.1507C15.28 13.1507 17.96 12.3163 24.08 16.4085C26.64 15.6934 29.36 15.3358 32.08 15.3358C34.8 15.3358 37.52 15.6934 40.08 16.4085C46.2 12.2766 48.88 13.1507 48.88 13.1507C50.64 17.521 49.52 20.7789 49.2 21.5735C51.24 23.7984 52.48 26.6192 52.48 30.1154C52.48 42.3126 45 45.0142 37.88 45.8088C39.04 46.8021 40.04 48.7091 40.04 51.6889C40.04 55.94 40 59.3568 40 60.4295C40 61.2639 40.6 62.2571 42.2 61.9393C48.5526 59.8092 54.0727 55.754 57.9834 50.3445C61.894 44.9351 63.9983 38.4437 64 31.7841C64 14.2234 49.68 0 32 0Z" fill="black"/>
</svg>