<svg width="72" height="72" viewBox="0 0 72 72" fill="none" xmlns="http://www.w3.org/2000/svg">
<path d="M53.3 63.2L48.7 67.8C47.5667 68.9333 46.1667 69.5167 44.5 69.55C42.8333 69.5833 41.4 69 40.2 67.8C39.0667 66.6667 38.5 65.25 38.5 63.55C38.5 61.85 39.0667 60.4333 40.2 59.3L44.8 54.7C44.5333 53.9667 44.3333 53.2 44.2 52.4C44.0667 51.6 44 50.8 44 50C44 46.1333 45.3667 42.8333 48.1 40.1C50.8333 37.3667 54.1333 36 58 36C58.6 36 59.2 36.0167 59.8 36.05C60.4 36.0833 60.9667 36.2 61.5 36.4C62.2333 36.6667 62.6833 37.2167 62.85 38.05C63.0167 38.8833 62.8333 39.5667 62.3 40.1L58 44.4C57.2 45.2 56.8 46.1333 56.8 47.2C56.8 48.2667 57.2 49.2 58 50C58.7333 50.7333 59.6667 51.1 60.8 51.1C61.9333 51.1 62.8667 50.7333 63.6 50L67.9 45.7C68.4333 45.1667 69.1167 44.9833 69.95 45.15C70.7833 45.3167 71.3333 45.7667 71.6 46.5C71.8 47.0333 71.9167 47.6 71.95 48.2C71.9833 48.8 72 49.4 72 50C72 53.8667 70.6333 57.1667 67.9 59.9C65.1667 62.6333 61.8667 64 58 64C57.1333 64 56.3167 63.9333 55.55 63.8C54.7833 63.6667 54.0333 63.4667 53.3 63.2ZM13.4 64C9.26667 60.6667 6 56.5833 3.6 51.75C1.2 46.9167 0 41.6667 0 36C0 31 0.95 26.3167 2.85 21.95C4.75 17.5833 7.31667 13.7833 10.55 10.55C13.7833 7.31667 17.5833 4.75 21.95 2.85C26.3167 0.95 31 0 36 0C43.4 0 50.0333 2 55.9 6C61.7667 10 66.1 15.1667 68.9 21.5C69.3667 22.5667 69.3667 23.6 68.9 24.6C68.4333 25.6 67.6667 26.3 66.6 26.7C65.6 27.0333 64.6167 26.9667 63.65 26.5C62.6833 26.0333 61.9667 25.3 61.5 24.3C59.3 19.5 55.9167 15.5833 51.35 12.55C46.7833 9.51667 41.6667 8 36 8C28.2 8 21.5833 10.7167 16.15 16.15C10.7167 21.5833 8 28.2 8 36C8 40.8 9.08333 45.2 11.25 49.2C13.4167 53.2 16.3333 56.4667 20 59V52C20 50.8667 20.3833 49.9167 21.15 49.15C21.9167 48.3833 22.8667 48 24 48C25.1333 48 26.0833 48.3833 26.85 49.15C27.6167 49.9167 28 50.8667 28 52V68C28 69.1333 27.6167 70.0833 26.85 70.85C26.0833 71.6167 25.1333 72 24 72H8C6.86667 72 5.91667 71.6167 5.15 70.85C4.38333 70.0833 4 69.1333 4 68C4 66.8667 4.38333 65.9167 5.15 65.15C5.91667 64.3833 6.86667 64 8 64H13.4Z" fill="black"/>
</svg>